<svg width="32" height="32" viewBox="0 0 32 32" fill="none" xmlns="http://www.w3.org/2000/svg">
  <path d="M16 2C8.27812 2 2 8.27812 2 16C2 23.7219 8.27812 30 16 30C23.7219 30 30 23.7219 30 16C30 8.27812 23.7219 2 16 2ZM23.4219 11.0781L20.9031 23.1469C20.7094 24.1063 20.1656 24.325 19.3688 23.8781L15.4813 20.9469L13.6063 22.7438C13.3938 22.9563 13.2156 23.1344 12.8031 23.1344L13.0906 19.1688L20.4281 12.5375C20.7531 12.2531 20.3594 12.0938 19.9375 12.3781L10.8906 18.0469L7.04688 16.8406C6.10938 16.5531 6.09063 15.9406 7.25 15.4938L22.2281 9.80625C23.0156 9.53125 23.6531 9.98438 23.4219 11.0781Z" fill="#3B82F6"/>
</svg> 