<svg width="32" height="32" viewBox="0 0 32 32" fill="none" xmlns="http://www.w3.org/2000/svg">
  <path d="M27.541 9.964C27.721 9.34 27.541 8.875 26.649 8.875H23.9C23.141 8.875 22.789 9.271 22.609 9.715C22.609 9.715 21.249 13.039 19.329 15.215C18.633 15.911 18.313 16.127 17.937 16.127C17.757 16.127 17.505 15.911 17.505 15.287V9.964C17.505 9.205 17.289 8.875 16.657 8.875H12.281C11.793 8.875 11.505 9.217 11.505 9.535C11.505 10.258 12.461 10.414 12.569 12.439V16.247C12.569 17.199 12.389 17.367 12.013 17.367C11.105 17.367 8.885 14.031 7.573 10.024C7.297 9.201 7.009 8.875 6.245 8.875H3.496C2.649 8.875 2.473 9.271 2.473 9.715C2.473 10.506 3.381 14.175 6.705 19.095C8.921 22.419 12.125 24.207 15.049 24.207C16.769 24.207 17.505 23.787 17.505 23.047V20.587C17.505 19.74 17.689 19.564 18.289 19.564C18.721 19.564 19.481 19.78 21.081 21.32C22.909 23.147 23.241 24.207 24.381 24.207H27.129C27.977 24.207 28.397 23.787 28.153 22.947C27.885 22.111 26.913 20.875 25.621 19.431C24.925 18.615 23.881 17.739 23.565 17.295C23.133 16.719 23.253 16.475 23.565 15.983C23.565 15.983 26.829 11.407 27.541 9.964Z" fill="#3B82F6"/>
</svg> 