<svg width="32" height="32" viewBox="0 0 32 32" fill="none" xmlns="http://www.w3.org/2000/svg">
  <path d="M16.004 2C8.27637 2 2 8.27637 2 16.004C2 18.6318 2.77588 21.0752 4.11475 23.1377L2.27588 29.8799L9.17969 28.0664C11.1523 29.2764 13.4912 30 16.004 30C23.7236 30 30 23.7236 30 16.004C30 8.27637 23.7236 2 16.004 2ZM22.9756 20.8359C22.6963 21.5869 21.4863 22.2881 20.6104 22.4775C20.0088 22.6172 19.2158 22.7236 16.3828 21.5869C12.7744 20.1484 10.4355 16.4824 10.2461 16.2432C10.0566 16.0039 8.75 14.2646 8.75 12.4756C8.75 10.6865 9.67773 9.81201 10.0088 9.4248C10.2979 9.08887 10.7266 8.97266 11.1221 8.97266C11.2881 8.97266 11.4541 8.97266 11.5869 8.98242C11.9326 9.00195 12.1055 9.02148 12.3281 9.64453C12.6074 10.4209 13.3916 12.21 13.4834 12.3926C13.5752 12.5752 13.667 12.8213 13.5338 13.0674C13.4092 13.3135 13.3008 13.4385 13.1182 13.6543C12.9355 13.8701 12.7617 14.0361 12.5791 14.2686C12.4131 14.4678 12.2305 14.6836 12.4463 15.0625C12.6621 15.4414 13.3916 16.6348 14.4785 17.6055C15.8838 18.8652 17.0439 19.2773 17.4229 19.4434C17.8018 19.6094 18.0479 19.5674 18.2637 19.3184C18.4961 19.0693 19.1807 18.2764 19.4434 17.8975C19.7061 17.5186 19.9688 17.5854 20.3145 17.7178C20.667 17.8502 22.4561 18.7275 22.835 18.9102C23.2139 19.0928 23.4766 19.1846 23.5684 19.3184C23.6602 19.4521 23.6602 20.085 22.9756 20.8359Z" fill="#3B82F6"/>
</svg> 